<?xml version="1.0" encoding="UTF-8" standalone="no"?>
<svg
   xmlns:dc="http://purl.org/dc/elements/1.1/"
   xmlns:cc="http://creativecommons.org/ns#"
   xmlns:rdf="http://www.w3.org/1999/02/22-rdf-syntax-ns#"
   xmlns:svg="http://www.w3.org/2000/svg"
   xmlns="http://www.w3.org/2000/svg"
   id="svg8623"
   version="1.1"
   viewBox="0 0 505.88953 60.510002"
   height="60.510002mm"
   width="505.88953mm">
  <defs
     id="defs8617">
    <clipPath
       id="clipPath78"
       clipPathUnits="userSpaceOnUse">
      <path
         id="path76"
         d="M 0,7834 H 1440 V 0 H 0 Z" />
    </clipPath>
  </defs>
  <metadata
     id="metadata8620">
    <rdf:RDF>
      <cc:Work
         rdf:about="">
        <dc:format>image/svg+xml</dc:format>
        <dc:type
           rdf:resource="http://purl.org/dc/dcmitype/StillImage" />
        <dc:title></dc:title>
      </cc:Work>
    </rdf:RDF>
  </metadata>
  <g
     transform="translate(314.50207,95.473641)"
     id="layer1">
    <g
       style="fill:#ff0000"
       id="g72"
       transform="matrix(0.35277777,0,0,-0.35277777,-314.85416,1477.0417)">
      <path
         id="path108"
         transform="matrix(0.75000002,0,0,-0.75000002,0.50000316,4457.5239)"
         d="m 142.38086,0 c -5.40899,0 -7.84933,-2.2229152e-4 -20.77344,50.214844 -10.74748,41.841199 9.59568,56.315286 16.94727,60.074216 v 26.66406 H 0.6640625 v 44.54297 h 1.9941406 15.9570309 2.658204 v 5.32032 H 18.615234 2.6582031 0.6640625 v 41.88281 H 1912.6875 v -41.88281 h -11.3027 -2.6582 v -5.32032 h 2.6582 11.3027 v -44.54297 h -136.1973 l 0.033,-31.6875 -37.08,-29.878901 -16.1895,13.074219 V 39.378906 h -0.031 l -27.7051,-22.287109 -4.7031,-3.794922 -4.7032,3.794922 -27.7051,22.320312 v 55.017579 l -9.9257,-7.980469 -37.0801,29.845701 0.033,20.6582 H 744.91602 v -0.86914 h -2.32422 c 0.42414,-0.84426 0.6343,-1.9012 0.8457,-2.74414 0.21141,-0.42426 0.21045,-1.269 0.42188,-1.48046 l 0.21289,-6.3379 V 114.32617 92.78125 h 0.21093 c 3.59003,0 5.06889,0.844609 5.70313,4.224609 0.42149,2.324134 0.63281,4.647681 0.63281,6.757811 v 7.39453 c 0,0.63427 0.42178,1.05664 1.05469,1.05664 h 3.16992 c 0.63424,0 1.05664,-0.42237 1.05664,-1.05664 -0.21141,-4.8572 -0.21094,-9.08345 -0.21094,-9.29492 0,-1.68987 -8.5e-4,-3.379283 -0.21093,-4.646483 0,-0.211333 -0.21094,-1.055716 -0.21094,-1.478516 -1.4799,-6.1256 -4.01554,-8.026539 -9.29688,-7.816406 h -1.89843 c 0,-0.843067 -10e-4,-1.478395 -0.21289,-2.111328 -0.21143,-0.634267 -0.21047,-1.055716 -0.42188,-1.478516 -1.47856,-6.125733 -4.0136,-8.027739 -9.29492,-7.816406 h -14.9961 c -5.28133,-0.211333 -7.81504,1.690673 -9.29492,7.816406 -0.21141,0.4228 -0.21241,1.054383 -0.42383,1.478516 -0.21009,1.267067 -0.21093,2.955151 -0.21093,4.646484 v 2.113281 0.210938 34.42969 c 0,1.69 8.4e-4,3.38136 0.21093,4.64844 0,0.21146 0.21242,1.0562 0.42383,1.48046 0.21274,1.05574 0.42094,1.89988 0.84375,2.74414 h -1.68945 v 0.86914 h -47.00977 v -13.33398 c 5.0327,-2.5316 9.34349,-6.29887 12.5293,-10.94726 5.66959,-8.17721 11.04294,-23.310562 4.41602,-49.160161 C 666.05054,13.296653 663.54563,13.296875 658.20312,13.296875 h -1.25195 c -5.40897,0 -7.84934,-2.22e-4 -20.77344,50.214844 -10.74748,41.841201 9.59765,56.315281 16.94922,60.074221 v 13.36718 H 192.20117 v -6.91015 c 2.65928,-1.3376 4.93519,-3.32867 6.61719,-5.7832 2.99701,-4.32 5.83493,-12.31475 2.33398,-25.968754 -6.81041,-26.527733 -8.13358,-26.527344 -10.95507,-26.527344 h -0.66211 c -2.85607,0 -4.14497,-3.89e-4 -10.97266,26.527344 -5.67756,22.102534 5.06925,29.749174 8.95312,31.734374 v 6.92773 h -40.08984 v -26.63085 c 5.03268,-2.5316 9.34348,-6.29692 12.5293,-10.945317 5.66958,-8.1772 11.04295,-23.31251 4.41601,-49.162109 C 151.48024,-2.2229152e-4 148.97531,0 143.63281,0 Z m 0.59375,8.9355469 c 1.61551,2.9345331 5.24158,12.6946261 13.1875,43.3906251 7.71457,30.037999 -2.04499,42.861454 -8.63867,47.972658 V 86.583984 h -9.10156 V 100.23242 C 131.86275,95.155891 122.13574,82.199238 129.78516,52.326172 137.6646,21.630173 141.29261,11.87008 142.97461,8.9355469 Z M 657.54492,22.232422 c 1.61551,2.934533 5.24157,12.692672 13.1875,43.388672 7.71458,30.037999 -2.04499,42.863406 -8.63867,47.974606 V 99.878906 h -9.10156 V 113.5293 c -6.55912,-5.07654 -16.28613,-18.03514 -8.63672,-47.908206 7.87945,-30.696 11.50745,-40.454139 13.18945,-43.388672 z m 1033.26958,1.93164 24.0371,19.367188 v 51.677734 l -12.4551,10.056636 v 31.6875 h -16.8711 v -20.6582 l -18.7481,-15.11719 V 43.53125 Z M 256.52148,26.59375 c -4.75745,0 -6.90501,-8.38e-4 -18.27343,44.173828 -9.45639,36.808402 8.43949,49.542192 14.9082,52.847652 v 11.89258 l 7.80273,0.11719 v -11.97852 c 4.4277,-2.22853 8.21861,-5.54218 11.02149,-9.63086 4.9888,-7.19466 9.71524,-20.505289 3.88476,-43.246089 v -0.002 C 264.52474,26.592912 262.32066,26.59375 257.62305,26.59375 Z m 0.52149,7.861328 c 1.42272,2.5808 4.61164,11.166189 11.60156,38.169922 6.78648,26.423866 -1.79971,37.70766 -7.59961,42.20312 v -12.0664 h -8.00586 v 12.00781 c -5.77197,-4.46627 -14.32829,-15.865597 -7.59765,-42.14453 6.93274,-27.003733 10.123,-35.589122 11.60156,-38.169922 z m 1434.12693,8.914063 c -7.1668,0 -12.9746,5.809762 -12.9746,12.976562 0,7.165333 5.8078,12.976563 12.9746,12.976563 7.168,0 12.9785,-5.81123 12.9785,-12.976563 0,-7.1668 -5.8099,-12.975229 -12.9765,-12.976562 z m 0,5.384765 c 4.1126,0 7.4473,3.33398 7.4473,7.445313 0,4.1112 -3.3347,7.445312 -7.4473,7.445312 -4.1113,0 -7.4433,-3.334112 -7.4433,-7.445312 0,-4.111333 3.332,-7.445313 7.4433,-7.445313 z M 189.84766,76.482422 c 0.85362,1.5504 2.76975,6.706809 6.96875,22.921875 4.07534,15.867863 -1.0808,22.644553 -4.56446,25.343753 v -7.2461 h -4.80664 v 7.21094 c -3.46637,-2.6832 -8.60327,-9.52713 -4.5625,-25.308593 4.16178,-16.215066 6.07665,-21.371475 6.96485,-22.921875 z m 530.98632,4.679687 h 11.83008 c 3.59136,0 5.07085,0.84461 5.70508,4.22461 0.42151,1.6912 0.4214,3.59125 0.63281,5.28125 v 34.009761 h -0.21093 v 0.42188 c 0,2.32427 -0.21194,4.64829 -0.63477,6.75977 -0.63291,3.16853 -1.9013,4.2246 -5.28125,4.2246 h -8.02539 -5.07031 c -2.74571,-0.21 -4.01225,-1.05607 -4.64649,-4.2246 l -0.63476,-39.501958 c 0,-2.324133 0.21194,-4.64657 0.63476,-6.970703 0.63424,-3.38 2.11115,-4.22461 5.70117,-4.22461 z m 1018.60942,5.09375 28.7089,23.097661 v 27.5996 h -57.3867 v -27.5996 z M 720.20117,88.132812 v 4.859376 H 732.875 v -4.859376 z m 2.11328,8.238282 v 4.857426 h 8.23633 v -4.857426 z m 926.16605,0.945312 28.6757,23.097654 v 16.53906 h -57.3867 V 120.41406 Z M 55.84375,181.49609 h 2.662109 15.955079 2.658203 v 5.32032 H 74.460938 58.505859 55.84375 Z m 55.8457,0 h 2.66016 15.95508 2.6582 v 5.32032 h -2.6582 -15.95508 -2.66016 z m 55.84375,0 h 2.66016 15.95508 2.66211 v 5.32032 h -2.66211 -15.95508 -2.66016 z m 55.84766,0 h 2.6582 15.95508 2.66016 v 5.32032 h -2.66016 -15.95508 -2.6582 z m 55.84375,0 h 2.6582 15.95508 2.66016 v 5.32032 h -2.66016 -15.95508 -2.6582 z m 55.8457,0 h 2.65821 15.95703 2.6582 v 5.32032 h -2.6582 -15.95703 -2.65821 z m 55.84375,0 h 2.65821 15.95703 2.6582 v 5.32032 h -2.6582 -15.95703 -2.65821 z m 55.84375,0 h 2.66211 15.95508 2.6582 v 5.32032 h -2.6582 -15.95508 -2.66211 z m 55.84571,0 h 2.66015 15.95508 2.6582 v 5.32032 h -2.6582 -15.95508 -2.66015 z m 55.84375,0 h 2.66015 15.95508 2.66211 v 5.32032 h -2.66211 -15.95508 -2.66015 z m 55.84765,0 h 2.6582 15.95508 2.66016 v 5.32032 h -2.66016 -15.95508 -2.6582 z m 55.84375,0 h 2.65821 15.95507 2.66016 v 5.32032 h -2.66016 -15.95507 -2.65821 z m 55.84571,0 h 2.6582 15.95703 2.6582 v 5.32032 h -2.6582 -15.95703 -2.6582 z m 55.84374,0 h 2.65821 15.95703 2.6582 v 5.32032 h -2.6582 -15.95703 -2.65821 z m 55.84376,0 h 2.6621 15.95508 2.65821 v 5.32032 h -2.65821 -15.95508 -2.6621 z m 55.8457,0 h 2.66015 15.95508 2.65821 v 5.32032 h -2.65821 -15.95508 -2.66015 z m 55.84375,0 h 2.66211 15.95312 2.66211 v 5.32032 h -2.66211 -15.95312 -2.66211 z m 55.84767,0 h 2.6582 15.9551 2.6601 v 5.32032 h -2.6601 -15.9551 -2.6582 z m 55.8437,0 h 2.6582 15.9551 2.6621 v 5.32032 h -2.6621 -15.9551 -2.6582 z m 55.8457,0 h 2.6582 15.9571 2.6582 v 5.32032 h -2.6582 -15.9571 -2.6582 z m 55.8438,0 h 2.6582 15.957 2.6582 v 5.32032 h -2.6582 -15.957 -2.6582 z m 55.8437,0 h 2.6621 15.9551 2.6582 v 5.32032 h -2.6582 -15.9551 -2.6621 z m 55.8457,0 h 2.6602 15.9551 2.6582 v 5.32032 h -2.6582 -15.9551 -2.6602 z m 55.8438,0 h 2.6621 15.9551 2.6601 v 5.32032 h -2.6601 -15.9551 -2.6621 z m 55.8476,0 h 2.6582 15.9551 2.6602 v 5.32032 h -2.6602 -15.9551 -2.6582 z m 55.8438,0 h 2.6582 15.9551 2.6621 v 5.32032 h -2.6621 -15.9551 -2.6582 z m 55.8457,0 h 2.6582 15.957 2.6582 v 5.32032 h -2.6582 -15.957 -2.6582 z m 55.8437,0 h 2.6583 15.957 2.6582 v 5.32032 h -2.6582 -15.957 -2.6583 z m 55.8458,0 h 2.6601 15.9551 2.6582 v 5.32032 h -2.6582 -15.9551 -2.6601 z m 55.8437,0 h 2.6602 15.955 2.6582 v 5.32032 h -2.6582 -15.955 -2.6602 z m 55.8438,0 h 2.6621 15.955 2.6602 v 5.32032 h -2.6602 -15.955 -2.6621 z m 55.8476,0 h 2.6582 15.9551 2.6601 v 5.32032 h -2.6601 -15.9551 -2.6582 z m 55.8438,0 h 2.6582 15.955 2.6621 v 5.32032 h -2.6621 -15.955 -2.6582 z"
         style="fill:#ffffff;fill-opacity:1;fill-rule:nonzero;stroke:none;stroke-width:1.32963991" />
      <g
         id="g9380">
        <g
           id="g9374">
          <g
             id="g9369" />
        </g>
      </g>
    </g>
  </g>
</svg>
