<?xml version="1.0" encoding="utf-8"?>
<!-- Generator: Adobe Illustrator 22.0.1, SVG Export Plug-In . SVG Version: 6.00 Build 0)  -->
<svg version="1.1" id="Calque_1" xmlns="http://www.w3.org/2000/svg" xmlns:xlink="http://www.w3.org/1999/xlink" x="0px" y="0px"
	 viewBox="0 0 313.4 595.3" style="enable-background:new 0 0 313.4 595.3;" xml:space="preserve">
<style type="text/css">
	.st0{fill:#2D3E88;}
	.st1{fill:#343434;}
	.st2{font-family:'Merriweather-Italic';}
	.st3{font-size:13.6395px;}
	.st4{fill:#FFFFFF;}
</style>
<g>
	<path class="st0" d="M121.3,351.6c-7.9-1.7-12.4,4.1-12.8,9.2c-6,0.4-8.9,5.2-8.9,9.1c0,3.9,2.8,9,8.8,9h16.3v-12.7l10.1-8.9
		l10.1,8.9v12.7h6.3c8,0,11.7-4.6,11.7-10.3c0-5.2-4.1-11-10.4-11.7c-0.5-9-8.8-15.1-16.2-15.1C128.9,341.8,123.4,346.4,121.3,351.6
		 M134.8,353L134.8,353l14.3,12.7l-1.5,1.7L134.8,356L122,367.4l-1.5-1.7L134.8,353L134.8,353z M140.4,354.6h2.4v4.2l-2.4-2
		L140.4,354.6z"/>
	<path class="st0" d="M134,370v8.9h5.8V370H134z"/>
</g>
<g>
	<g>
		<g>
			<circle class="st0" cx="131.3" cy="110.9" r="6.5"/>
		</g>
		<g>
			<path class="st0" d="M137.2,122.4h-12c-5,0-7.9,2.8-9.3,8.7c-0.1,0.4-0.2,1.1-0.2,1.3h5.1v-0.1c0.6-3.2,2.7-4.8,6.1-4.8h8.7
				c3.4,0,5.5,1.6,6.1,4.8v0.1h5c0-0.4-0.1-1-0.2-1.3C145.2,125.1,142.3,122.4,137.2,122.4z"/>
		</g>
	</g>
	<g>
		<circle class="st0" cx="146.3" cy="114.9" r="5.5"/>
	</g>
	<g>
		<g>
			<path class="st0" d="M160,130.4c-1.1-5-3.7-7.3-7.8-7.3h-8.7c1.6,0.9,2.9,2.2,3.8,4.3h3.5c2.9,0,4.6,1.3,5.1,4v0.1h4.3
				C160.1,131.3,160,130.8,160,130.4z"/>
		</g>
	</g>
	<g>
		<circle class="st0" cx="116.2" cy="114.9" r="5.5"/>
	</g>
	<g>
		<g>
			<path class="st0" d="M102.5,130.4c1.1-5,3.7-7.3,7.8-7.3h8.7c-1.6,0.9-2.9,2.2-3.8,4.3h-3.5c-2.9,0-4.6,1.3-5.1,4v0.1h-4.3
				C102.4,131.3,102.4,130.8,102.5,130.4z"/>
		</g>
	</g>
</g>
<g>
	<text transform="matrix(1 0 0 1 179.0741 215.7398)" class="st1 st2 st3">éligibles</text>
</g>
<g>
	<text transform="matrix(1 0 0 1 179.0743 298.2641)" class="st1 st2 st3">télétravailleurs</text>
</g>
<g>
	<text transform="matrix(1 0 0 1 179.0741 375.4485)" class="st1 st2 st3">Sites d’accueil</text>
</g>
<g>
	<text transform="matrix(1 0 0 1 179.0741 443.264)" class="st1 st2 st3">Aide/Information</text>
</g>
<g>
	<text transform="matrix(1 0 0 1 179.0741 515.264)" class="st1 st2 st3">Témoignage</text>
</g>
<g>
	<g>
		<path class="st0" d="M131.1,264.3c1.9,0.1,3.5-1.3,3.7-3.1c0.2-1.9-1.3-3.5-3.1-3.7c-1.9-0.1-3.5,1.3-3.7,3.1
			C127.8,262.5,129.2,264.1,131.1,264.3z"/>
	</g>
	<g>
		<path class="st0" d="M133.9,300.4h-13.2c-0.5,0-0.8,0.3-0.8,0.7v1c0,0.4,0.4,0.7,0.8,0.7h13.2c0.5,0,0.8-0.3,0.8-0.7v-1
			C134.8,300.7,134.4,300.4,133.9,300.4z"/>
	</g>
	<g>
		<path class="st0" d="M143.1,273.2h-31.4c-1.8,0-3.3,1.5-3.3,3.3v19.7c0,1.8,1.5,3.3,3.3,3.3h31.4c1.8,0,3.3-1.5,3.3-3.3v-19.7
			C146.4,274.7,144.9,273.2,143.1,273.2z M127.4,274.7c0.6,0,1,0.4,1,1c0,0.6-0.4,1-1,1c-0.6,0-1-0.4-1-1
			C126.4,275.2,126.8,274.7,127.4,274.7z M111.7,294.4V278h7.2l-0.1,0.6c0,0.1,0,0.1,0,0.2c-0.1,0.9,0.6,1.6,1.4,1.7
			c0.8,0.1,1.5-0.5,1.7-1.3l0.3-1.2h1.9l-2.2,9.8l-4,6.7L111.7,294.4L111.7,294.4z M123.2,294.4l2.9-4.9c0.1-0.2,0.4-0.7,0.5-1
			l1.2-5.3l4.9,5.4l1.1,5.8H123.2z M143.1,294.4h-4.6l-1.3-7.1c-0.1-0.3-0.1-0.5-0.3-0.7l-6.1-7.2l0.3-1.5h6.3l1.7,1.2
			c0.2,0.1,0.5,0.2,0.7,0.2c0.8,0.1,1.6-0.6,1.7-1.4c0,0,0,0,0,0h1.6L143.1,294.4L143.1,294.4z"/>
	</g>
	<g>
		<path class="st0" d="M152.4,254.8H128c-0.9,0-1.7,0.8-1.7,1.7v13.9c0,0.9,0.8,1.7,1.7,1.7h24.4c0.9,0,1.7-0.8,1.7-1.7v-13.9
			C154.1,255.5,153.4,254.8,152.4,254.8z M152.6,269.9h-18.2l-1.7-3.4c-0.6-0.9-1.5-1.6-2.7-1.7c-0.8-0.1-1.6,0.2-2.2,0.6v-8.9h24.9
			V269.9z"/>
	</g>
	<g>
		<path class="st0" d="M119.4,272h4.5c0.6,0,1.2-0.5,1.2-1.2v-10.7c0-0.6-0.5-1.2-1.2-1.2h-4.5c-0.6,0-1.2,0.5-1.2,1.2v10.7
			C118.2,271.5,118.7,272,119.4,272z M118.7,261.3h5.8v6.7l-2.4,1.9h-3.4L118.7,261.3L118.7,261.3z"/>
	</g>
	<g>
		<circle class="st0" cx="148.5" cy="253.1" r="1"/>
	</g>
</g>
<g>
	<text transform="matrix(1 0 0 1 179.0741 132.352)" class="st1 st2 st3">Candidatures</text>
</g>
<g>
	<g>
		<path class="st0" d="M149.8,168h-5.6v-3c0-2.4-2-4.4-4.4-4.4c-2.4,0-4.4,2-4.4,4.4v3h-22.7c-0.4,0-0.7,0.3-0.7,0.7v47
			c0,0.4,0.3,0.7,0.7,0.7h27.1c0.4,0,0.7-0.3,0.7-0.7s-0.3-0.7-0.7-0.7h-26.4v-45.6h22v2.3c0,1.4,1.1,2.5,2.5,2.5
			c1.4,0,2.5-1.1,2.5-2.5v-5.8c0-0.4-0.3-0.7-0.7-0.7s-0.7,0.3-0.7,0.7v5.8c0,0.6-0.5,1.1-1.1,1.1c-0.6,0-1.1-0.5-1.1-1.1v-6.6
			c0-1.6,1.3-3,3-3c1.6,0,3,1.3,3,3v3.7c0,0.4,0.3,0.7,0.7,0.7c0.1,0,0.2,0,0.3-0.1c0.1,0.1,0.2,0.1,0.3,0.1h5v45.6h-2.1
			c-0.4,0-0.7,0.3-0.7,0.7c0,0.4,0.3,0.7,0.7,0.7h2.8c0.4,0,0.7-0.3,0.7-0.7v-47.1C150.5,168.3,150.2,168,149.8,168z"/>
		<path class="st0" d="M132.7,180.9h9.9c0.4,0,0.7-0.3,0.7-0.7s-0.3-0.7-0.7-0.7h-9.9c-0.4,0-0.7,0.3-0.7,0.7
			S132.3,180.9,132.7,180.9z"/>
		<path class="st0" d="M132.7,185.1h8.5c0.4,0,0.7-0.3,0.7-0.7s-0.3-0.7-0.7-0.7h-8.5c-0.4,0-0.7,0.3-0.7,0.7
			S132.3,185.1,132.7,185.1z"/>
		<path class="st0" d="M141.9,197.2c0-0.4-0.3-0.7-0.7-0.7h-22.8c-0.4,0-0.7,0.3-0.7,0.7s0.3,0.7,0.7,0.7h22.8
			C141.6,197.9,141.9,197.6,141.9,197.2z"/>
		<path class="st0" d="M118.5,193.6h7.1c0.4,0,0.7-0.3,0.7-0.7c0-0.4-0.3-0.7-0.7-0.7h-7.1c-0.4,0-0.7,0.3-0.7,0.7
			C117.8,193.3,118.1,193.6,118.5,193.6z"/>
		<path class="st0" d="M144.1,192.2h-14.2c-0.4,0-0.7,0.3-0.7,0.7c0,0.4,0.3,0.7,0.7,0.7h14.2c0.4,0,0.7-0.3,0.7-0.7
			C144.8,192.5,144.5,192.2,144.1,192.2z"/>
		<path class="st0" d="M118.5,200.8c-0.4,0-0.7,0.3-0.7,0.7c0,0.4,0.3,0.7,0.7,0.7h19.9c0.4,0,0.7-0.3,0.7-0.7
			c0-0.4-0.3-0.7-0.7-0.7H118.5z"/>
		<path class="st0" d="M130.6,205.7c0-0.4-0.3-0.7-0.7-0.7h-11.4c-0.4,0-0.7,0.3-0.7,0.7c0,0.4,0.3,0.7,0.7,0.7h11.4
			C130.2,206.4,130.6,206.1,130.6,205.7z"/>
		<path class="st0" d="M118.5,209.3c-0.4,0-0.7,0.3-0.7,0.7s0.3,0.7,0.7,0.7h4.3c0.4,0,0.7-0.3,0.7-0.7s-0.3-0.7-0.7-0.7H118.5z"/>
		<path class="st0" d="M141.2,209.3H127c-0.4,0-0.7,0.3-0.7,0.7s0.3,0.7,0.7,0.7h14.2c0.4,0,0.7-0.3,0.7-0.7
			S141.6,209.3,141.2,209.3z"/>
		<path class="st0" d="M144.1,205h-10c-0.4,0-0.7,0.3-0.7,0.7c0,0.4,0.3,0.7,0.7,0.7h9.9c0.4,0,0.7-0.3,0.7-0.7
			C144.7,205.3,144.5,205,144.1,205z"/>
	</g>
	<g>
		<g>
			<g>
				<circle class="st0" cx="122.7" cy="178.6" r="1.9"/>
			</g>
			<g>
				<path class="st0" d="M124.4,182h-3.5c-1.5,0-2.3,0.8-2.7,2.5c0,0.1-0.1,0.3-0.1,0.4h1.5v0c0.2-0.9,0.8-1.4,1.8-1.4h2.5
					c1,0,1.6,0.5,1.8,1.4v0h1.5c0-0.1,0-0.3-0.1-0.4C126.8,182.8,125.9,182,124.4,182z"/>
			</g>
		</g>
	</g>
</g>
<path class="st0" d="M132.7,412.3c-10.6,0-19.2,8.6-19.2,19.2c0,10.6,8.6,19.2,19.2,19.2c10.6,0,19.2-8.6,19.2-19.2
	C151.9,420.9,143.3,412.3,132.7,412.3z M132.7,443c-1.3,0-2.4-1.1-2.4-2.4s1.1-2.4,2.4-2.4c1.3,0,2.4,1.1,2.4,2.4S134,443,132.7,443
	z M138.4,429.3c-0.4,0.9-1.1,1.6-1.8,2.2c-0.2,0.2-0.4,0.3-0.7,0.5c0,0,0,0-0.1,0l0,0c0,0,0,0-0.1,0c-1,0.5-1.6,1.5-1.6,2.6v1.1
	c0,0.1-0.1,0.1-0.1,0.1h-2.8c-0.1,0-0.1-0.1-0.1-0.1v-1.1c0-2.2,1.2-4.3,3.2-5.3l0,0c0,0,0,0,0,0c0,0,0,0,0,0
	c0.1-0.1,0.2-0.2,0.4-0.2c0.8-0.6,1.3-1.6,1.3-2.7c0-1.9-1.5-3.4-3.4-3.4c-1.9,0-3.4,1.5-3.4,3.4c0,0.1-0.1,0.1-0.1,0.1h-2.8
	c-0.1,0-0.1-0.1-0.1-0.1c0-0.9,0.2-1.7,0.5-2.5c0.3-0.8,0.8-1.5,1.4-2.1c0.6-0.6,1.3-1.1,2.1-1.4c0.8-0.3,1.6-0.5,2.5-0.5
	c0.9,0,1.7,0.2,2.5,0.5c0.8,0.3,1.5,0.8,2.1,1.4c0.6,0.6,1.1,1.3,1.4,2.1c0.3,0.8,0.5,1.6,0.5,2.5
	C139.1,427.5,138.9,428.4,138.4,429.3z"/>
<g>
	<g>
		<circle class="st0" cx="128.4" cy="495" r="6.5"/>
	</g>
	<g>
		<path class="st0" d="M143.9,516.5c0-0.4-0.1-1-0.2-1.3c-1.3-6-4.3-8.7-9.3-8.7h-12c-5,0-7.9,2.8-9.3,8.7c-0.1,0.4-0.2,1.1-0.2,1.3
			"/>
	</g>
</g>
<path class="st0" d="M142.2,499.9c-0.2,0-0.3,0-0.5-0.1c-0.4-0.2-0.6-0.6-0.6-1v-10.9c0-3.1,2.5-5.7,5.7-5.7h7.7
	c3.1,0,5.7,2.5,5.7,5.7v3.4c0,3.1-2.5,5.7-5.7,5.7h-7.9l-3.6,2.7C142.7,499.8,142.5,499.9,142.2,499.9z"/>
<g>
	<path class="st4" d="M46.3,351.6c-7.9-1.7-12.4,4.1-12.8,9.2c-6,0.4-8.9,5.2-8.9,9.1c0,3.9,2.8,9,8.8,9h16.3v-12.7l10.1-8.9
		l10.1,8.9v12.7h6.3c8,0,11.7-4.6,11.7-10.3c0-5.2-4.1-11-10.4-11.7c-0.5-9-8.8-15.1-16.2-15.1C53.9,341.8,48.4,346.4,46.3,351.6
		 M59.8,353L59.8,353l14.3,12.7l-1.5,1.7L59.8,356L47,367.4l-1.5-1.7L59.8,353L59.8,353z M65.4,354.6h2.4v4.2l-2.4-2L65.4,354.6z"/>
	<path class="st4" d="M59,370v8.9h5.8V370H59z"/>
</g>
<g>
	<g>
		<g>
			<circle class="st4" cx="56.3" cy="110.9" r="6.5"/>
		</g>
		<g>
			<path class="st4" d="M62.2,122.4h-12c-5,0-7.9,2.8-9.3,8.7c-0.1,0.4-0.2,1.1-0.2,1.3h5.1v-0.1c0.6-3.2,2.7-4.8,6.1-4.8h8.7
				c3.4,0,5.5,1.6,6.1,4.8v0.1h5c0-0.4-0.1-1-0.2-1.3C70.2,125.1,67.3,122.4,62.2,122.4z"/>
		</g>
	</g>
	<g>
		<circle class="st4" cx="71.3" cy="114.9" r="5.5"/>
	</g>
	<g>
		<g>
			<path class="st4" d="M85,130.4c-1.1-5-3.7-7.3-7.8-7.3h-8.7c1.6,0.9,2.9,2.2,3.8,4.3h3.5c2.9,0,4.6,1.3,5.1,4v0.1h4.3
				C85.1,131.3,85,130.8,85,130.4z"/>
		</g>
	</g>
	<g>
		<circle class="st4" cx="41.2" cy="114.9" r="5.5"/>
	</g>
	<g>
		<g>
			<path class="st4" d="M27.5,130.4c1.1-5,3.7-7.3,7.8-7.3H44c-1.6,0.9-2.9,2.2-3.8,4.3h-3.5c-2.9,0-4.6,1.3-5.1,4v0.1h-4.3
				C27.4,131.3,27.4,130.8,27.5,130.4z"/>
		</g>
	</g>
</g>
<g>
	<g>
		<path class="st4" d="M56.1,264.3c1.9,0.1,3.5-1.3,3.7-3.1c0.2-1.9-1.3-3.5-3.1-3.7c-1.9-0.1-3.5,1.3-3.7,3.1
			C52.8,262.5,54.2,264.1,56.1,264.3z"/>
	</g>
	<g>
		<path class="st4" d="M58.9,300.4H45.8c-0.5,0-0.8,0.3-0.8,0.7v1c0,0.4,0.4,0.7,0.8,0.7h13.2c0.5,0,0.8-0.3,0.8-0.7v-1
			C59.8,300.7,59.4,300.4,58.9,300.4z"/>
	</g>
	<g>
		<path class="st4" d="M68.1,273.2H36.7c-1.8,0-3.3,1.5-3.3,3.3v19.7c0,1.8,1.5,3.3,3.3,3.3h31.4c1.8,0,3.3-1.5,3.3-3.3v-19.7
			C71.4,274.7,69.9,273.2,68.1,273.2z M52.4,274.7c0.6,0,1,0.4,1,1c0,0.6-0.4,1-1,1c-0.6,0-1-0.4-1-1
			C51.4,275.2,51.8,274.7,52.4,274.7z M36.7,294.4V278h7.2l-0.1,0.6c0,0.1,0,0.1,0,0.2c-0.1,0.9,0.6,1.6,1.4,1.7
			c0.8,0.1,1.5-0.5,1.7-1.3L47,278H49l-2.2,9.8l-4,6.7L36.7,294.4L36.7,294.4z M48.2,294.4l2.9-4.9c0.1-0.2,0.4-0.7,0.5-1l1.2-5.3
			l4.9,5.4l1.1,5.8H48.2z M68.1,294.4h-4.6l-1.3-7.1c-0.1-0.3-0.1-0.5-0.3-0.7l-6.1-7.2l0.3-1.5h6.3l1.7,1.2
			c0.2,0.1,0.5,0.2,0.7,0.2c0.8,0.1,1.6-0.6,1.7-1.4c0,0,0,0,0,0h1.6L68.1,294.4L68.1,294.4z"/>
	</g>
	<g>
		<path class="st4" d="M77.4,254.8H53c-0.9,0-1.7,0.8-1.7,1.7v13.9c0,0.9,0.8,1.7,1.7,1.7h24.4c0.9,0,1.7-0.8,1.7-1.7v-13.9
			C79.1,255.5,78.4,254.8,77.4,254.8z M77.6,269.9H59.4l-1.7-3.4c-0.6-0.9-1.5-1.6-2.7-1.7c-0.8-0.1-1.6,0.2-2.2,0.6v-8.9h24.9
			V269.9z"/>
	</g>
	<g>
		<path class="st4" d="M44.4,272h4.5c0.6,0,1.2-0.5,1.2-1.2v-10.7c0-0.6-0.5-1.2-1.2-1.2h-4.5c-0.6,0-1.2,0.5-1.2,1.2v10.7
			C43.2,271.5,43.7,272,44.4,272z M43.7,261.3h5.8v6.7l-2.4,1.9h-3.4L43.7,261.3L43.7,261.3z"/>
	</g>
	<g>
		<circle class="st4" cx="73.5" cy="253.1" r="1"/>
	</g>
</g>
<g>
	<g>
		<path class="st4" d="M74.8,168h-5.6v-3c0-2.4-2-4.4-4.4-4.4c-2.4,0-4.4,2-4.4,4.4v3H37.8c-0.4,0-0.7,0.3-0.7,0.7v47
			c0,0.4,0.3,0.7,0.7,0.7h27.1c0.4,0,0.7-0.3,0.7-0.7s-0.3-0.7-0.7-0.7H38.5v-45.6h22v2.3c0,1.4,1.1,2.5,2.5,2.5s2.5-1.1,2.5-2.5
			v-5.8c0-0.4-0.3-0.7-0.7-0.7c-0.4,0-0.7,0.3-0.7,0.7v5.8c0,0.6-0.5,1.1-1.1,1.1c-0.6,0-1.1-0.5-1.1-1.1v-6.6c0-1.6,1.3-3,3-3
			c1.6,0,3,1.3,3,3v3.7c0,0.4,0.3,0.7,0.7,0.7c0.1,0,0.2,0,0.3-0.1c0.1,0.1,0.2,0.1,0.3,0.1h5v45.6h-2.1c-0.4,0-0.7,0.3-0.7,0.7
			c0,0.4,0.3,0.7,0.7,0.7h2.8c0.4,0,0.7-0.3,0.7-0.7v-47.1C75.5,168.3,75.2,168,74.8,168z"/>
		<path class="st4" d="M57.7,180.9h9.9c0.4,0,0.7-0.3,0.7-0.7s-0.3-0.7-0.7-0.7h-9.9c-0.4,0-0.7,0.3-0.7,0.7S57.3,180.9,57.7,180.9z
			"/>
		<path class="st4" d="M57.7,185.1h8.5c0.4,0,0.7-0.3,0.7-0.7s-0.3-0.7-0.7-0.7h-8.5c-0.4,0-0.7,0.3-0.7,0.7S57.3,185.1,57.7,185.1z
			"/>
		<path class="st4" d="M66.9,197.2c0-0.4-0.3-0.7-0.7-0.7H43.5c-0.4,0-0.7,0.3-0.7,0.7s0.3,0.7,0.7,0.7h22.8
			C66.6,197.9,66.9,197.6,66.9,197.2z"/>
		<path class="st4" d="M43.5,193.6h7.1c0.4,0,0.7-0.3,0.7-0.7c0-0.4-0.3-0.7-0.7-0.7h-7.1c-0.4,0-0.7,0.3-0.7,0.7
			C42.8,193.3,43.1,193.6,43.5,193.6z"/>
		<path class="st4" d="M69.1,192.2H54.9c-0.4,0-0.7,0.3-0.7,0.7c0,0.4,0.3,0.7,0.7,0.7h14.2c0.4,0,0.7-0.3,0.7-0.7
			C69.8,192.5,69.5,192.2,69.1,192.2z"/>
		<path class="st4" d="M43.5,200.8c-0.4,0-0.7,0.3-0.7,0.7c0,0.4,0.3,0.7,0.7,0.7h19.9c0.4,0,0.7-0.3,0.7-0.7c0-0.4-0.3-0.7-0.7-0.7
			H43.5z"/>
		<path class="st4" d="M55.6,205.7c0-0.4-0.3-0.7-0.7-0.7H43.5c-0.4,0-0.7,0.3-0.7,0.7c0,0.4,0.3,0.7,0.7,0.7h11.4
			C55.2,206.4,55.6,206.1,55.6,205.7z"/>
		<path class="st4" d="M43.5,209.3c-0.4,0-0.7,0.3-0.7,0.7s0.3,0.7,0.7,0.7h4.3c0.4,0,0.7-0.3,0.7-0.7s-0.3-0.7-0.7-0.7H43.5z"/>
		<path class="st4" d="M66.2,209.3H52c-0.4,0-0.7,0.3-0.7,0.7s0.3,0.7,0.7,0.7h14.2c0.4,0,0.7-0.3,0.7-0.7S66.6,209.3,66.2,209.3z"
			/>
		<path class="st4" d="M69.1,205h-10c-0.4,0-0.7,0.3-0.7,0.7c0,0.4,0.3,0.7,0.7,0.7H69c0.4,0,0.7-0.3,0.7-0.7
			C69.7,205.3,69.5,205,69.1,205z"/>
	</g>
	<g>
		<g>
			<g>
				<circle class="st4" cx="47.7" cy="178.6" r="1.9"/>
			</g>
			<g>
				<path class="st4" d="M49.4,182h-3.5c-1.5,0-2.3,0.8-2.7,2.5c0,0.1-0.1,0.3-0.1,0.4h1.5v0c0.2-0.9,0.8-1.4,1.8-1.4H49
					c1,0,1.6,0.5,1.8,1.4v0h1.5c0-0.1,0-0.3-0.1-0.4C51.8,182.8,50.9,182,49.4,182z"/>
			</g>
		</g>
	</g>
</g>
<path class="st4" d="M57.7,412.3c-10.6,0-19.2,8.6-19.2,19.2c0,10.6,8.6,19.2,19.2,19.2c10.6,0,19.2-8.6,19.2-19.2
	C76.9,420.9,68.3,412.3,57.7,412.3z M57.7,443c-1.3,0-2.4-1.1-2.4-2.4s1.1-2.4,2.4-2.4c1.3,0,2.4,1.1,2.4,2.4S59,443,57.7,443z
	 M63.4,429.3c-0.4,0.9-1.1,1.6-1.8,2.2c-0.2,0.2-0.4,0.3-0.7,0.5c0,0,0,0-0.1,0l0,0c0,0,0,0-0.1,0c-1,0.5-1.6,1.5-1.6,2.6v1.1
	c0,0.1-0.1,0.1-0.1,0.1h-2.8c-0.1,0-0.1-0.1-0.1-0.1v-1.1c0-2.2,1.2-4.3,3.2-5.3l0,0c0,0,0,0,0,0c0,0,0,0,0,0
	c0.1-0.1,0.2-0.2,0.4-0.2c0.8-0.6,1.3-1.6,1.3-2.7c0-1.9-1.5-3.4-3.4-3.4c-1.9,0-3.4,1.5-3.4,3.4c0,0.1-0.1,0.1-0.1,0.1h-2.8
	c-0.1,0-0.1-0.1-0.1-0.1c0-0.9,0.2-1.7,0.5-2.5c0.3-0.8,0.8-1.5,1.4-2.1c0.6-0.6,1.3-1.1,2.1-1.4c0.8-0.3,1.6-0.5,2.5-0.5
	c0.9,0,1.7,0.2,2.5,0.5c0.8,0.3,1.5,0.8,2.1,1.4c0.6,0.6,1.1,1.3,1.4,2.1c0.3,0.8,0.5,1.6,0.5,2.5C64.1,427.5,63.9,428.4,63.4,429.3
	z"/>
<g>
	<g>
		<circle class="st4" cx="53.4" cy="495" r="6.5"/>
	</g>
	<g>
		<path class="st4" d="M68.9,516.5c0-0.4-0.1-1-0.2-1.3c-1.3-6-4.3-8.7-9.3-8.7h-12c-5,0-7.9,2.8-9.3,8.7c-0.1,0.4-0.2,1.1-0.2,1.3"
			/>
	</g>
</g>
<path class="st4" d="M67.2,499.9c-0.2,0-0.3,0-0.5-0.1c-0.4-0.2-0.6-0.6-0.6-1v-10.9c0-3.1,2.5-5.7,5.7-5.7h7.7
	c3.1,0,5.7,2.5,5.7,5.7v3.4c0,3.1-2.5,5.7-5.7,5.7h-7.9l-3.6,2.7C67.7,499.8,67.5,499.9,67.2,499.9z"/>
</svg>
