<svg xmlns="http://www.w3.org/2000/svg" viewBox="0 0 38.38 38.38"><defs><style>.cls-1{fill:#fff;}</style></defs><title>Fichier 15</title><g id="Calque_2" data-name="Calque 2"><g id="Calque_1-2" data-name="Calque 1"><path class="cls-1" d="M19.19,0A19.19,19.19,0,1,0,38.38,19.19,19.19,19.19,0,0,0,19.19,0Zm0,30.7a2.38,2.38,0,1,1,2.38-2.38A2.39,2.39,0,0,1,19.19,30.7ZM25,17.05a6.49,6.49,0,0,1-1.84,2.22,7.38,7.38,0,0,1-.68.46l-.07,0h0l-.06,0a2.92,2.92,0,0,0-1.56,2.59v1.11a.15.15,0,0,1-.15.14h-2.8a.15.15,0,0,1-.15-.14V22.41a6,6,0,0,1,3.18-5.31h0l0,0,0,0a2.71,2.71,0,0,0,.35-.24,3.37,3.37,0,1,0-5.42-2.67.14.14,0,0,1-.14.14H12.87a.14.14,0,0,1-.14-.14,6.41,6.41,0,0,1,.51-2.52,6.33,6.33,0,0,1,1.38-2.05,6.45,6.45,0,0,1,11,4.57A6.44,6.44,0,0,1,25,17.05Z"/></g></g></svg>