<?xml version="1.0" encoding="UTF-8" standalone="no"?>
<!-- Created with Inkscape (http://www.inkscape.org/) -->

<svg
   xmlns:dc="http://purl.org/dc/elements/1.1/"
   xmlns:cc="http://creativecommons.org/ns#"
   xmlns:rdf="http://www.w3.org/1999/02/22-rdf-syntax-ns#"
   xmlns:svg="http://www.w3.org/2000/svg"
   xmlns="http://www.w3.org/2000/svg"
   xmlns:sodipodi="http://sodipodi.sourceforge.net/DTD/sodipodi-0.dtd"
   xmlns:inkscape="http://www.inkscape.org/namespaces/inkscape"
   width="17.197912mm"
   height="25.01812mm"
   viewBox="0 0 17.197912 25.01812"
   version="1.1"
   id="svg10378"
   inkscape:version="0.92.2 (5c3e80d, 2017-08-06)"
   sodipodi:docname="note.svg">
  <defs
     id="defs10372" />
  <sodipodi:namedview
     id="base"
     pagecolor="#ffffff"
     bordercolor="#666666"
     borderopacity="1.0"
     inkscape:pageopacity="0.0"
     inkscape:pageshadow="2"
     inkscape:zoom="1.979899"
     inkscape:cx="63.175309"
     inkscape:cy="-28.928863"
     inkscape:document-units="mm"
     inkscape:current-layer="layer1"
     showgrid="false"
     fit-margin-top="0"
     fit-margin-left="0"
     fit-margin-right="0"
     fit-margin-bottom="0"
     inkscape:window-width="1920"
     inkscape:window-height="1150"
     inkscape:window-x="0"
     inkscape:window-y="25"
     inkscape:window-maximized="1" />
  <metadata
     id="metadata10375">
    <rdf:RDF>
      <cc:Work
         rdf:about="">
        <dc:format>image/svg+xml</dc:format>
        <dc:type
           rdf:resource="http://purl.org/dc/dcmitype/StillImage" />
        <dc:title></dc:title>
      </cc:Work>
    </rdf:RDF>
  </metadata>
  <g
     inkscape:label="Calque 1"
     inkscape:groupmode="layer"
     id="layer1"
     transform="translate(-161.68861,-159.33343)">
    <path
       inkscape:connector-curvature="0"
       style="fill:#2c3d87;fill-opacity:1;fill-rule:nonzero;stroke:none;stroke-width:0.26552802"
       d="m 174.1189,159.33343 c -1.07273,0 -1.95607,0.88359 -1.95607,1.95607 v 1.35669 h -10.15878 c -0.18932,0 -0.31544,0.12637 -0.31544,0.31544 v 21.04297 c 0,0.18905 0.12612,0.31544 0.31544,0.31544 h 12.11485 c 0.18932,0 0.31505,-0.12639 0.31505,-0.31544 0,-0.18933 -0.12573,-0.31545 -0.31505,-0.31545 h -11.7994 v -20.41207 h 9.84333 v 1.00973 c 0,0.6309 0.50486,1.13575 1.13575,1.13575 0.63117,0 1.13537,-0.50485 1.13537,-1.13575 v -2.61885 c 0,-0.18907 -0.12573,-0.31507 -0.31505,-0.31507 -0.18932,0 -0.31583,0.126 -0.31583,0.31507 v 2.61885 c 0,0.28385 -0.22064,0.50448 -0.50449,0.50448 -0.28384,0 -0.50447,-0.22063 -0.50447,-0.50448 v -2.9658 c 0,-0.72569 0.5991,-1.3248 1.32479,-1.3248 0.72542,0 1.32518,0.59911 1.32518,1.3248 v 1.67213 c 0,0.18931 0.12612,0.31545 0.31544,0.31545 0.0632,0 0.0944,7e-5 0.12602,-0.0315 0.0316,0.0316 0.0948,0.0315 0.12641,0.0315 h 2.23962 v 20.41207 h -0.94634 c -0.18932,0 -0.31583,0.12611 -0.31583,0.31544 0,0.18933 0.12651,0.31545 0.31583,0.31545 h 1.26178 c 0.18932,0 0.31544,-0.12612 0.31544,-0.31545 v -21.07447 c 0.0316,-0.18907 -0.12621,-0.31544 -0.28394,-0.31544 h -2.52355 v -1.35669 c 0,-1.07248 -0.88359,-1.95607 -1.95606,-1.95607 z m -7.66518,7.21594 c -0.46972,0 -0.85065,0.38055 -0.85065,0.85025 0,0.46973 0.38093,0.85065 0.85065,0.85065 0.46998,0 0.85026,-0.38092 0.85026,-0.85065 0,-0.4697 -0.38028,-0.85025 -0.85026,-0.85025 z m 4.47845,1.20769 c -0.18932,0 -0.31505,0.12615 -0.31505,0.31545 0,0.18907 0.15733,0.31545 0.31505,0.31545 h 4.4485 c 0.18932,0 0.31545,-0.12638 0.31545,-0.31545 0,-0.1893 -0.12613,-0.31545 -0.31545,-0.31545 z m -5.26492,1.15093 c -0.65798,0 -1.0432,0.36962 -1.21977,1.13965 -0.016,0.0483 -0.0323,0.14447 -0.0323,0.17659 h 0.67446 v -0.016 c 0.0802,-0.4174 0.35287,-0.62581 0.80242,-0.62581 h 1.13925 c 0.44927,0 0.72223,0.20841 0.80242,0.62581 v 0.016 h 0.65811 c 0,-0.048 -0.0163,-0.12825 -0.0323,-0.17658 -0.17657,-0.78623 -0.5614,-1.13966 -1.21938,-1.13966 z m 5.26492,0.74214 c -0.18932,0 -0.31505,0.12612 -0.31505,0.31545 0,0.18905 0.15733,0.31545 0.31505,0.31545 h 3.81761 c 0.18933,0 0.31545,-0.1264 0.31545,-0.31545 0,-0.18933 -0.12612,-0.31545 -0.31545,-0.31545 z m -6.37267,3.81723 c -0.18932,0 -0.31544,0.12612 -0.31544,0.31545 0,0.18905 0.15771,0.31542 0.31544,0.31542 h 3.18634 c 0.18932,0 0.31544,-0.12637 0.31544,-0.31542 0,-0.18933 -0.12612,-0.31545 -0.31544,-0.31545 z m 5.1109,0 c -0.18932,0 -0.31545,0.12638 -0.31545,0.31545 0,0.1893 0.12613,0.31542 0.31545,0.31542 h 6.37267 c 0.18932,0 0.31544,-0.12612 0.31544,-0.31542 0,-0.18907 -0.15745,-0.31545 -0.31544,-0.31545 z m -5.11051,1.92455 c -0.18932,0 -0.31583,0.12614 -0.31583,0.31544 0,0.18933 0.12651,0.31507 0.31583,0.31507 h 10.18989 c 0.18906,0 0.31545,-0.12574 0.31545,-0.31507 0,-0.1893 -0.12639,-0.31544 -0.31545,-0.31544 z m -4e-4,1.92456 c -0.18932,0 -0.31544,0.12601 -0.31544,0.31505 0,0.18933 0.12612,0.31585 0.31544,0.31585 h 8.92812 c 0.18932,0 0.31583,-0.12652 0.31583,-0.31585 0,-0.18904 -0.12651,-0.31505 -0.31583,-0.31505 z m 0,1.89267 c -0.18906,0 -0.31544,0.12612 -0.31544,0.31545 0,0.18933 0.12638,0.31545 0.31544,0.31545 h 5.11128 c 0.15746,0 0.31506,-0.12612 0.31506,-0.31545 0,-0.18933 -0.126,-0.31545 -0.31506,-0.31545 z m 7.00395,0 c -0.18932,0 -0.31584,0.1264 -0.31584,0.31545 0,0.18933 0.12652,0.31545 0.31584,0.31545 h 4.4485 c 0.18932,0 0.31506,-0.12612 0.31506,-0.31545 0,-0.18905 -0.12595,-0.31545 -0.28394,-0.31545 z m -7.00395,1.92457 c -0.18932,0 -0.31544,0.12637 -0.31544,0.31545 0,0.1893 0.12612,0.31542 0.31544,0.31542 h 1.92456 c 0.18932,0 0.31545,-0.12612 0.31545,-0.31542 0,-0.18908 -0.12613,-0.31545 -0.31545,-0.31545 z m 3.81723,0 c -0.18933,0 -0.31506,0.12637 -0.31506,0.31545 0,0.1893 0.12573,0.31542 0.31506,0.31542 h 6.37306 c 0.18932,0 0.31544,-0.12612 0.31544,-0.31542 0,-0.18908 -0.12612,-0.31545 -0.31544,-0.31545 z"
       id="path566" />
  </g>
</svg>
