<?xml version="1.0" encoding="UTF-8" standalone="no"?>
<!-- Created with Inkscape (http://www.inkscape.org/) -->

<svg
   xmlns:dc="http://purl.org/dc/elements/1.1/"
   xmlns:cc="http://creativecommons.org/ns#"
   xmlns:rdf="http://www.w3.org/1999/02/22-rdf-syntax-ns#"
   xmlns:svg="http://www.w3.org/2000/svg"
   xmlns="http://www.w3.org/2000/svg"
   xmlns:sodipodi="http://sodipodi.sourceforge.net/DTD/sodipodi-0.dtd"
   xmlns:inkscape="http://www.inkscape.org/namespaces/inkscape"
   width="21.166666mm"
   height="23.518162mm"
   viewBox="0 0 21.166666 23.518162"
   version="1.1"
   id="svg10481"
   inkscape:version="0.92.2 (5c3e80d, 2017-08-06)"
   sodipodi:docname="screens.svg">
  <defs
     id="defs10475">
    <clipPath
       clipPathUnits="userSpaceOnUse"
       id="clipPath518">
      <path
         d="M 0,7834 H 1440 V 0 H 0 Z"
         id="path516"
         inkscape:connector-curvature="0" />
    </clipPath>
  </defs>
  <sodipodi:namedview
     id="base"
     pagecolor="#ffffff"
     bordercolor="#666666"
     borderopacity="1.0"
     inkscape:pageopacity="0.0"
     inkscape:pageshadow="2"
     inkscape:zoom="2.8"
     inkscape:cx="-68.310409"
     inkscape:cy="-15.693173"
     inkscape:document-units="mm"
     inkscape:current-layer="layer1"
     showgrid="false"
     fit-margin-top="0"
     fit-margin-left="0"
     fit-margin-right="0"
     fit-margin-bottom="0"
     inkscape:window-width="1920"
     inkscape:window-height="1150"
     inkscape:window-x="0"
     inkscape:window-y="25"
     inkscape:window-maximized="1" />
  <metadata
     id="metadata10478">
    <rdf:RDF>
      <cc:Work
         rdf:about="">
        <dc:format>image/svg+xml</dc:format>
        <dc:type
           rdf:resource="http://purl.org/dc/dcmitype/StillImage" />
        <dc:title></dc:title>
      </cc:Work>
    </rdf:RDF>
  </metadata>
  <g
     inkscape:label="Calque 1"
     inkscape:groupmode="layer"
     id="layer1"
     transform="translate(-53.67166,-92.054109)">
    <path
       style="fill:#2c3d87;fill-opacity:1;fill-rule:nonzero;stroke:none;stroke-width:0.27436116"
       d="m 72.244889,92.054109 c -0.256802,0 -0.464992,0.208466 -0.464992,0.464995 0,0.256802 0.20819,0.464591 0.464992,0.464591 0.256802,0 0.464594,-0.207789 0.464594,-0.464591 0,-0.256529 -0.207792,-0.464995 -0.464594,-0.464995 z m -9.494395,1.254319 c -0.434588,0 -0.790127,0.355138 -0.790127,0.789726 v 6.411856 c 0,0.43459 0.355539,0.79012 0.790127,0.79012 h 11.297705 c 0.434588,0 0.790127,-0.35554 0.790127,-0.79012 v -6.411856 c 0,-0.434588 -0.355539,-0.789726 -0.790127,-0.789726 z m -0.104492,0.796157 h 11.505885 v 6.216935 h -8.434998 l -0.791734,-1.562174 c -0.266955,-0.413462 -0.714408,-0.747759 -1.25874,-0.794951 -0.375599,-0.02771 -0.728494,0.08974 -1.020413,0.273291 z m 1.61763,0.453741 c -0.803932,0.01823 -1.479122,0.638241 -1.543682,1.455668 -0.06695,0.874115 0.58662,1.637605 1.456069,1.705647 0.871646,0.06831 1.635342,-0.584336 1.702834,-1.454061 0.07463,-0.871919 -0.580111,-1.635615 -1.452853,-1.702834 -0.0546,-0.0043 -0.10877,-0.0056 -0.162368,-0.0044 z m -5.50879,0.700102 c -0.294114,0 -0.534523,0.239859 -0.534523,0.534523 v 4.971459 c -2.73e-4,0.29521 0.240409,0.53532 0.534523,0.53532 h 2.086646 c 0.294388,0 0.534521,-0.24038 0.534521,-0.53532 v -4.971459 c 0,-0.29439 -0.240133,-0.534523 -0.534521,-0.534523 z m -0.288561,1.062212 h 4.02e-4 2.675021 v 3.121527 l -1.100794,0.891813 h -1.574629 z m -3.273042,5.53692 c -0.839821,0 -1.521579,0.68094 -1.521579,1.52158 v 9.13269 c 0,0.84064 0.681758,1.52198 1.521579,1.52198 h 14.528949 c 0.840368,0 1.52198,-0.68106 1.52198,-1.52198 v -9.13309 c 0,-0.84037 -0.681612,-1.52118 -1.52198,-1.52118 z m 7.264273,0.69649 c 0.257351,0 0.465396,0.2075 0.465396,0.4654 0,0.25652 -0.208045,0.46499 -0.465396,0.46499 -0.255706,0 -0.464592,-0.20819 -0.464592,-0.46499 2.74e-4,-0.25735 0.208886,-0.4654 0.464592,-0.4654 z m -7.264273,1.49425 h 3.327298 l -0.06671,0.29861 c -0.0068,0.0341 -0.01114,0.063 -0.01608,0.0957 -0.02688,0.397 0.267216,0.73687 0.657905,0.76843 0.372309,0.0316 0.685793,-0.25125 0.764809,-0.59119 l 0.124588,-0.5715 h 0.892612 l -1.0172,4.51932 -1.845106,3.09018 h -2.822114 z m 8.981575,0 h 2.906916 l 0.808614,0.55622 c 0.114135,0.0513 0.210483,0.0993 0.329556,0.10369 0.391239,0.0321 0.737734,-0.26058 0.766818,-0.65428 2.73e-4,-0.002 -6.77e-4,-0.004 -4.02e-4,-0.005 h 0.735872 v 7.6091 h -2.144116 l -0.619323,-3.26862 c -0.02552,-0.11962 -0.06656,-0.23558 -0.130214,-0.34121 l -2.806441,-3.31846 z m -1.569806,2.44835 2.278752,2.49819 0.506791,2.66296 h -4.877815 l 1.34354,-2.27031 c 0.04746,-0.099 0.199649,-0.34028 0.215014,-0.45414 z m -3.191055,7.93464 c -0.210712,0 -0.380596,0.14961 -0.380596,0.33397 v 0.47103 c 0,0.18574 0.169884,0.33598 0.380596,0.33598 h 6.088325 c 0.21016,0 0.380193,-0.15024 0.380193,-0.33598 v -0.47103 c 0,-0.18436 -0.170306,-0.33397 -0.380193,-0.33397 z"
       id="path522"
       inkscape:connector-curvature="0" />
  </g>
</svg>
