<svg xmlns="http://www.w3.org/2000/svg" viewBox="0 0 47.2 34.3"><defs><style>.cls-1{fill:#2d3e88;}</style></defs><title>Fichier 13</title><g id="Calque_2" data-name="Calque 2"><g id="Calque_1-2" data-name="Calque 1"><circle class="cls-1" cx="15.53" cy="12.77" r="6.48" transform="translate(-4.48 14.72) rotate(-45)"/><path class="cls-1" d="M21.52,24.27h-12c-5,0-7.95,2.81-9.3,8.68A6.43,6.43,0,0,0,0,34.3H31.06A5.33,5.33,0,0,0,30.82,33C29.47,27,26.54,24.27,21.52,24.27Z"/><path class="cls-1" d="M41.54,0H33.89a5.67,5.67,0,0,0-5.66,5.66V16.55a1.14,1.14,0,0,0,.63,1,1.25,1.25,0,0,0,.5.11,1.12,1.12,0,0,0,.69-.23l3.6-2.74h7.89A5.67,5.67,0,0,0,47.2,9.05V5.66A5.67,5.67,0,0,0,41.54,0Z"/></g></g></svg>