<?xml version="1.0" encoding="UTF-8" standalone="no"?>
<!-- Generator: Adobe Illustrator 16.0.0, SVG Export Plug-In . SVG Version: 6.00 Build 0)  -->

<svg
   xmlns:dc="http://purl.org/dc/elements/1.1/"
   xmlns:cc="http://creativecommons.org/ns#"
   xmlns:rdf="http://www.w3.org/1999/02/22-rdf-syntax-ns#"
   xmlns:svg="http://www.w3.org/2000/svg"
   xmlns="http://www.w3.org/2000/svg"
   xmlns:sodipodi="http://sodipodi.sourceforge.net/DTD/sodipodi-0.dtd"
   xmlns:inkscape="http://www.inkscape.org/namespaces/inkscape"
   version="1.1"
   id="Capa_1"
   x="0px"
   y="0px"
   width="469.983px"
   height="469.983px"
   viewBox="0 0 469.983 469.983"
   style="enable-background:new 0 0 469.983 469.983;"
   xml:space="preserve"
   sodipodi:docname="resp_hierarchique.svg"
   inkscape:version="0.92.2 (5c3e80d, 2017-08-06)"><metadata
     id="metadata45"><rdf:RDF><cc:Work
         rdf:about=""><dc:format>image/svg+xml</dc:format><dc:type
           rdf:resource="http://purl.org/dc/dcmitype/StillImage" /></cc:Work></rdf:RDF></metadata><defs
     id="defs43" /><sodipodi:namedview
     pagecolor="#ffffff"
     bordercolor="#666666"
     borderopacity="1"
     objecttolerance="10"
     gridtolerance="10"
     guidetolerance="10"
     inkscape:pageopacity="0"
     inkscape:pageshadow="2"
     inkscape:window-width="1399"
     inkscape:window-height="774"
     id="namedview41"
     showgrid="false"
     inkscape:zoom="0.50214582"
     inkscape:cx="33.854708"
     inkscape:cy="234.9915"
     inkscape:window-x="344"
     inkscape:window-y="194"
     inkscape:window-maximized="0"
     inkscape:current-layer="Capa_1" /><g
     id="g8"
     style="fill:#2b3a85;fill-opacity:1"><g
       id="g6"
       style="fill:#2b3a85;fill-opacity:1"><path
         d="M307.067,269.267V152.173c0-19.66-16.003-35.647-35.657-35.647h-3.477c10.629-12.37,17.084-28.388,17.084-45.937    C285.018,31.667,253.366,0,214.428,0c-38.911,0-70.589,31.667-70.589,70.589c0,17.549,6.488,33.566,17.113,45.937h-3.507    c-19.645,0-35.632,15.988-35.632,35.647v117.094c0,19.659,15.988,35.645,35.632,35.645h1.36V432.97    c0,20.332,10.709,35.644,24.896,35.644h61.462c14.214,0,24.908-15.312,24.908-35.644V304.906h1.352    C291.076,304.906,307.067,288.926,307.067,269.267z M214.428,155.026c6.038,0,10.938,4.899,10.938,10.938    c0,6.026-4.9,10.929-10.938,10.929c-6.025,0-10.914-4.903-10.914-10.929C203.514,159.925,208.402,155.026,214.428,155.026z     M226.762,263.611c0,6.809-5.509,12.334-12.334,12.334c-6.806,0-12.333-5.525-12.333-12.334v-69.908    c0-6.807,5.521-12.334,12.333-12.334c6.819,0,12.334,5.521,12.334,12.334V263.611z"
         id="path2"
         style="fill:#2b3a85;fill-opacity:1" /><path
         d="M326.517,320.644h-0.265v-12.346c0-6.798-5.524-12.34-12.333-12.34c-6.822,0-12.334,5.53-12.334,12.34v12.346h-0.276    c-11.938,0-21.653,9.716-21.653,21.641V448.33c0,11.938,9.716,21.653,21.653,21.653h25.208c11.938,0,21.653-9.716,21.653-21.653    V342.285C348.17,330.36,338.454,320.644,326.517,320.644z"
         id="path4"
         style="fill:#2b3a85;fill-opacity:1" /></g></g><g
     id="g10" /><g
     id="g12" /><g
     id="g14" /><g
     id="g16" /><g
     id="g18" /><g
     id="g20" /><g
     id="g22" /><g
     id="g24" /><g
     id="g26" /><g
     id="g28" /><g
     id="g30" /><g
     id="g32" /><g
     id="g34" /><g
     id="g36" /><g
     id="g38" /></svg>