<?xml version="1.0" encoding="UTF-8" standalone="no"?>
<!-- Generator: Adobe Illustrator 16.0.0, SVG Export Plug-In . SVG Version: 6.00 Build 0)  -->

<svg
   xmlns:dc="http://purl.org/dc/elements/1.1/"
   xmlns:cc="http://creativecommons.org/ns#"
   xmlns:rdf="http://www.w3.org/1999/02/22-rdf-syntax-ns#"
   xmlns:svg="http://www.w3.org/2000/svg"
   xmlns="http://www.w3.org/2000/svg"
   xmlns:sodipodi="http://sodipodi.sourceforge.net/DTD/sodipodi-0.dtd"
   xmlns:inkscape="http://www.inkscape.org/namespaces/inkscape"
   version="1.1"
   id="Capa_1"
   x="0px"
   y="0px"
   width="468.626px"
   height="468.626px"
   viewBox="0 0 468.626 468.626"
   style="enable-background:new 0 0 468.626 468.626;"
   xml:space="preserve"
   sodipodi:docname="resp_site.svg"
   inkscape:version="0.92.2 (5c3e80d, 2017-08-06)"><metadata
     id="metadata45"><rdf:RDF><cc:Work
         rdf:about=""><dc:format>image/svg+xml</dc:format><dc:type
           rdf:resource="http://purl.org/dc/dcmitype/StillImage" /></cc:Work></rdf:RDF></metadata><defs
     id="defs43" /><sodipodi:namedview
     pagecolor="#ffffff"
     bordercolor="#666666"
     borderopacity="1"
     objecttolerance="10"
     gridtolerance="10"
     guidetolerance="10"
     inkscape:pageopacity="0"
     inkscape:pageshadow="2"
     inkscape:window-width="1237"
     inkscape:window-height="790"
     id="namedview41"
     showgrid="false"
     inkscape:zoom="0.50359988"
     inkscape:cx="33.756958"
     inkscape:cy="234.313"
     inkscape:window-x="499"
     inkscape:window-y="266"
     inkscape:window-maximized="0"
     inkscape:current-layer="Capa_1" /><g
     id="g8"
     style="fill:#2b3a85;fill-opacity:1"><g
       id="g6"
       style="fill:#2b3a85;fill-opacity:1"><path
         d="M262.145,303.831c15.409-3.928,26.86-17.943,26.86-34.553V152.186c0-19.657-16.003-35.645-35.633-35.645h-3.501    c10.629-12.37,17.096-28.388,17.096-45.939C266.967,31.681,235.289,0,196.377,0c-38.935,0-70.589,31.681-70.589,70.602    c0,17.552,6.464,33.569,17.102,45.939h-3.507c-19.645,0-35.632,15.988-35.632,35.645v117.093    c0,16.609,11.442,30.625,26.854,34.553l-24.737,36.617c-2.558,3.782-2.81,8.67-0.672,12.705c2.153,4.012,6.341,6.54,10.905,6.54    h24.667v73.294c0,20.326,10.673,35.639,24.872,35.639h61.478c14.187,0,24.898-15.312,24.898-35.639v-73.294h24.656    c0.078-0.013,0.126-0.013,0.162,0c6.81,0,12.34-5.519,12.34-12.334c0-3.213-1.226-6.137-3.243-8.341L262.145,303.831z     M195.081,153.687c6.05,0,10.938,4.888,10.938,10.914c0,6.041-4.888,10.929-10.938,10.929c-6.026,0-10.914-4.888-10.914-10.929    C184.167,158.574,189.049,153.687,195.081,153.687z M207.414,262.241c0,6.821-5.521,12.352-12.333,12.352    c-6.794,0-12.322-5.518-12.322-12.352v-69.902c0-6.806,5.521-12.322,12.322-12.322c6.806,0,12.333,5.51,12.333,12.322V262.241z"
         id="path2"
         style="fill:#2b3a85;fill-opacity:1" /><path
         d="M343.222,319.274h-0.276V306.94c0-6.797-5.512-12.321-12.334-12.321c-6.809,0-12.334,5.524-12.334,12.321v12.334h-0.264    c-11.938,0-21.653,9.716-21.653,21.654v106.044c0,11.95,9.716,21.653,21.653,21.653h25.208c11.938,0,21.653-9.703,21.653-21.653    V340.935C364.875,328.99,355.159,319.274,343.222,319.274z"
         id="path4"
         style="fill:#2b3a85;fill-opacity:1" /></g></g><g
     id="g10" /><g
     id="g12" /><g
     id="g14" /><g
     id="g16" /><g
     id="g18" /><g
     id="g20" /><g
     id="g22" /><g
     id="g24" /><g
     id="g26" /><g
     id="g28" /><g
     id="g30" /><g
     id="g32" /><g
     id="g34" /><g
     id="g36" /><g
     id="g38" /></svg>