<?xml version="1.0" encoding="UTF-8" standalone="no"?>
<!-- Generator: Adobe Illustrator 19.0.0, SVG Export Plug-In . SVG Version: 6.00 Build 0)  -->

<svg
   xmlns:dc="http://purl.org/dc/elements/1.1/"
   xmlns:cc="http://creativecommons.org/ns#"
   xmlns:rdf="http://www.w3.org/1999/02/22-rdf-syntax-ns#"
   xmlns:svg="http://www.w3.org/2000/svg"
   xmlns="http://www.w3.org/2000/svg"
   xmlns:sodipodi="http://sodipodi.sourceforge.net/DTD/sodipodi-0.dtd"
   xmlns:inkscape="http://www.inkscape.org/namespaces/inkscape"
   version="1.1"
   id="Layer_1"
   x="0px"
   y="0px"
   viewBox="0 0 395.766 395.766"
   style="enable-background:new 0 0 395.766 395.766;"
   xml:space="preserve"
   sodipodi:docname="site_dept.svg"
   inkscape:version="0.92.2 (5c3e80d, 2017-08-06)"><metadata
     id="metadata51"><rdf:RDF><cc:Work
         rdf:about=""><dc:format>image/svg+xml</dc:format><dc:type
           rdf:resource="http://purl.org/dc/dcmitype/StillImage" /></cc:Work></rdf:RDF></metadata><defs
     id="defs49" /><sodipodi:namedview
     pagecolor="#ffffff"
     bordercolor="#666666"
     borderopacity="1"
     objecttolerance="10"
     gridtolerance="10"
     guidetolerance="10"
     inkscape:pageopacity="0"
     inkscape:pageshadow="2"
     inkscape:window-width="1920"
     inkscape:window-height="1150"
     id="namedview47"
     showgrid="false"
     inkscape:zoom="1.192624"
     inkscape:cx="81.346276"
     inkscape:cy="139.92441"
     inkscape:window-x="0"
     inkscape:window-y="25"
     inkscape:window-maximized="1"
     inkscape:current-layer="Layer_1" /><g
     id="g14"
     style="fill:#2b3a85;fill-opacity:1"><path
       style="fill:#2b3a85;fill-opacity:1"
       d="M395.701,353.616h-29.026v-30.319h-12.994V178.683h12.994v-30.319h29.026v-42.667L197.883,0   L0.065,105.762v42.02h29.026v30.319h12.994V322.78H29.091v30.319H0.065v42.667h395.636V353.616z M354.263,335.709v17.907h-42.667   v-17.907H354.263z M299.248,353.616h-22.885v-30.319H263.37V178.683h12.994v-30.319h22.885v30.319h12.994v144.679h-12.994V353.616z    M209.002,353.616h-22.885v-30.319h-12.994V178.683h12.994v-30.319h22.885v30.319h12.994v144.679h-12.994V353.616z    M119.402,353.616H96.517v-30.319H83.523V178.683h12.994v-30.319h22.885v30.319h12.994v144.679h-12.994V353.616z M131.749,166.335   v-17.907h42.667v17.907H131.749z M161.422,323.362h-16.679V178.683h16.679V323.362z M173.77,335.063v19.2h-42.667v-18.554   L173.77,335.063z M221.349,166.335v-17.907h42.667v17.907H221.349z M251.022,323.362h-16.679V178.683h16.679V323.362z    M264.016,335.709v17.907h-42.667v-17.907H264.016z M324.59,178.683h16.679v144.679H324.59V178.683z M311.661,166.335v-17.907   h42.667v17.907H311.661z M12.412,136.016v-22.238l185.471-98.909l185.471,98.909v22.238H12.412z M41.503,166.335v-17.907H84.17   v17.907H41.503z M71.176,323.362H54.497V178.683h16.679V323.362z M84.17,335.709v17.907H41.503v-17.907H84.17z M12.412,384.517   V366.61h370.941v17.907H12.412z"
       id="path6" /><rect
       x="150.885"
       y="82.23"
       style="fill:#2b3a85;fill-opacity:1"
       width="12.347"
       height="12.347"
       id="rect8" /><rect
       x="191.677"
       y="82.23"
       style="fill:#2b3a85;fill-opacity:1"
       width="12.347"
       height="12.347"
       id="rect10" /><rect
       x="232.469"
       y="82.23"
       style="fill:#2b3a85;fill-opacity:1"
       width="12.347"
       height="12.347"
       id="rect12" /></g><g
     id="g16" /><g
     id="g18" /><g
     id="g20" /><g
     id="g22" /><g
     id="g24" /><g
     id="g26" /><g
     id="g28" /><g
     id="g30" /><g
     id="g32" /><g
     id="g34" /><g
     id="g36" /><g
     id="g38" /><g
     id="g40" /><g
     id="g42" /><g
     id="g44" /></svg>